<svg width="24" height="24" viewBox="0 0 24 24" xmlns="http://www.w3.org/2000/svg">
<path d="M23.126 0.00488281C23.6169 0.0547003 24 0.469563 24 0.973633V12.0264L23.9951 12.126C23.9486 12.5842 23.5842 12.9486 23.126 12.9951L23.0264 13H20V17.0264L19.9951 17.126C19.9486 17.5842 19.5842 17.9486 19.126 17.9951L19.0264 18H10.9004V22.0996H15.6816L15.7744 22.1045C16.228 22.1508 16.582 22.5342 16.582 23C16.582 23.4658 16.228 23.8492 15.7744 23.8955L15.6816 23.9004H4C3.50294 23.9004 3.09961 23.4971 3.09961 23C3.09961 22.5029 3.50294 22.0996 4 22.0996H9.09961V18H0.973633L0.874023 17.9951C0.415797 17.9486 0.0513817 17.5842 0.00488281 17.126L0 17.0264V5.97363C0 5.46956 0.383096 5.0547 0.874023 5.00488L0.973633 5H4V0.973633C4 0.469563 4.3831 0.0547001 4.87402 0.00488281L4.97363 0H23.0264L23.126 0.00488281ZM1.7998 16.2002H18.2002V6.7998H1.7998V16.2002ZM19.126 5.00488C19.6169 5.0547 20 5.46956 20 5.97363V11.2002H22.2002V1.7998H5.7998V5H19.0264L19.126 5.00488Z" fill="white"/>
</svg>
